<?xml version="1.0" encoding="UTF-8"?>
<svg width="46px" height="46px" viewBox="0 0 46 46" version="1.1" xmlns="http://www.w3.org/2000/svg" xmlns:xlink="http://www.w3.org/1999/xlink">
    <title>Cleaning, Housekeeping/broom</title>
    <g id="页面-1" stroke="none" stroke-width="1" fill="none" fill-rule="evenodd">
        <g id="通知中心最长" transform="translate(-490.000000, -95.000000)">
            <g id="编组-25" transform="translate(16.000000, 46.000000)">
                <g id="Cleaning,-Housekeeping/broom" transform="translate(474.000000, 49.000000)">
                    <g id="Group" transform="translate(0.990833, 0.990833)">
                        <line x1="6.50232781" y1="28.4357918" x2="9.09613298" y2="25.8419866" id="Path" stroke="#323232" stroke-width="2.75" stroke-linecap="round" stroke-linejoin="round"></line>
                        <line x1="15.5806459" y1="37.5141099" x2="18.1744511" y2="34.9203047" id="Path" stroke="#323232" stroke-width="2.75" stroke-linecap="round" stroke-linejoin="round"></line>
                        <path d="M25.6156791,35.3955777 L8.13673254,35.3955777 C7.09321636,35.3955777 6.09903564,34.951382 5.40307092,34.1738481 C4.70710622,33.3963141 4.37523871,32.3591657 4.49054726,31.3220398 L5.14715407,25.4144127 C5.56017041,21.6995973 8.69998587,18.8891661 12.4376905,18.8886853 L21.3147211,18.8886853 C25.0559286,18.8844903 28.2010267,21.6961133 28.614428,25.4144127 L29.2710348,31.3220398 C29.3865239,32.360756 29.0534599,33.3994154 28.3554561,34.177271 C27.6574522,34.9551269 26.6607922,35.3983125 25.6156791,35.3955777 L25.6156791,35.3955777 Z" id="Path" stroke="#323232" stroke-width="2.75" stroke-linecap="round" stroke-linejoin="round" transform="translate(16.880792, 27.142131) rotate(-315.000000) translate(-16.880792, -27.142131) "></path>
                        <path d="M31.7919282,4.88812064 L31.7919282,4.88812064 C33.311344,4.88812064 34.543074,6.11985059 34.543074,7.63926647 L34.543074,18.6438498 C34.543074,19.1503218 34.1324974,19.5608984 33.6260254,19.5608984 L29.957831,19.5608984 C29.451359,19.5608984 29.0407823,19.1503218 29.0407823,18.6438498 L29.0407823,7.63926647 C29.0407823,6.11985059 30.2725123,4.88812064 31.7919282,4.88812064 Z" id="Path" stroke="#323232" stroke-width="2.75" stroke-linecap="round" stroke-linejoin="round" transform="translate(31.791928, 12.224510) rotate(-315.000000) translate(-31.791928, -12.224510) "></path>
                        <path d="M28.7856827,22.1086196 L20.5322452,22.1086196 C19.9188465,22.1086196 19.3460289,21.8020774 19.0058616,21.2916421 C18.6656942,20.7812067 18.603215,20.1345108 18.8393735,19.5683949 L19.604192,17.7342977 C19.8891706,17.0511509 20.5568596,16.6062661 21.2970638,16.6063279 L28.0208642,16.6063279 C28.7610684,16.6062661 29.4287574,17.0511509 29.7137359,17.7342977 L30.4785545,19.5683949 C30.714713,20.1345108 30.6522337,20.7812067 30.3120663,21.2916421 C29.971899,21.8020774 29.3990815,22.1086196 28.7856827,22.1086196 L28.7856827,22.1086196 Z" id="Path" stroke="#323232" stroke-width="2.75" stroke-linecap="round" stroke-linejoin="round" transform="translate(24.658964, 19.357474) rotate(-315.000000) translate(-24.658964, -19.357474) "></path>
                        <line x1="11.0414869" y1="32.9749509" x2="13.635292" y2="30.3811457" id="Path" stroke="#323232" stroke-width="2.75" stroke-linecap="round" stroke-linejoin="round"></line>
                        <rect id="Rectangle" x="0" y="0" width="44.0183333" height="44.0183333"></rect>
                    </g>
                </g>
            </g>
        </g>
    </g>
</svg>