<?xml version="1.0" encoding="UTF-8"?>
<svg width="44px" height="44px" viewBox="0 0 44 44" version="1.1" xmlns="http://www.w3.org/2000/svg" xmlns:xlink="http://www.w3.org/1999/xlink">
    <title>-mockplus-</title>
    <defs>
        <filter id="filter-1">
            <feColorMatrix in="SourceGraphic" type="matrix" values="0 0 0 0 0.282353 0 0 0 0 0.282353 0 0 0 0 0.290196 0 0 0 1.000000 0"></feColorMatrix>
        </filter>
    </defs>
    <g id="页面-1" stroke="none" stroke-width="1" fill="none" fill-rule="evenodd">
        <g id="通知中心最长" transform="translate(-492.000000, -598.000000)">
            <g id="编组-25" transform="translate(16.000000, 46.000000)">
                <g id="按钮-清空输入-2" transform="translate(476.000000, 552.000000)" filter="url(#filter-1)">
                    <g id="按钮-清空输入">
                        <rect id="矩形" x="0" y="0" width="44" height="44"></rect>
                        <g id="Group" transform="translate(9.500000, 10.000000)" fill="#D8D8D8">
                            <path d="M18.0415212,0 C21.3552297,2.334446e-15 24.0415212,2.6862915 24.0415212,6 L24.0415212,18 C24.0415212,21.3137085 21.3552297,24 18.0415212,24 L6,24 C2.6862915,24 3.65375128e-15,21.3137085 0,18 L0,6 C-4.05812251e-16,2.6862915 2.6862915,6.08718376e-16 6,0 L18.0415212,0 Z M9.13570623,7.77785668 C8.84281301,7.48496347 8.36793928,7.48496347 8.07504606,7.77785668 L8.07504606,7.77785668 L7.77785668,8.07504606 C7.48496347,8.36793928 7.48496347,8.84281301 7.77785668,9.13570623 L7.77785668,9.13570623 L10.6421868,11.9991868 L7.77785668,14.8642938 C7.48496347,15.157187 7.48496347,15.6320607 7.77785668,15.9249539 L7.77785668,15.9249539 L8.07504606,16.2221433 C8.36793928,16.5150365 8.84281301,16.5150365 9.13570623,16.2221433 L9.13570623,16.2221433 L11.9991868,13.3571868 L14.8642938,16.2221433 C15.157187,16.5150365 15.6320607,16.5150365 15.9249539,16.2221433 L15.9249539,16.2221433 L16.2221433,15.9249539 C16.5150365,15.6320607 16.5150365,15.157187 16.2221433,14.8642938 L16.2221433,14.8642938 L13.3571868,11.9991868 L16.2221433,9.13570623 C16.5150365,8.84281301 16.5150365,8.36793928 16.2221433,8.07504606 L16.2221433,8.07504606 L15.9249539,7.77785668 C15.6320607,7.48496347 15.157187,7.48496347 14.8642938,7.77785668 L14.8642938,7.77785668 L11.9991868,10.6421868 Z" id="形状结合"></path>
                        </g>
                    </g>
                </g>
            </g>
        </g>
    </g>
</svg>