<?xml version="1.0" encoding="UTF-8"?>
<svg width="22px" height="22px" viewBox="0 0 22 22" version="1.1" xmlns="http://www.w3.org/2000/svg" xmlns:xlink="http://www.w3.org/1999/xlink">
    <title>编组备份 9</title>
    <defs>
        <polygon id="path-1" points="0 0.358666667 5.52004849 0.358666667 5.52004849 5.82986667 0 5.82986667"></polygon>
        <polygon id="path-3" points="0.269842646 0.358666667 5.79 0.358666667 5.79 5.83026667 0.269842646 5.83026667"></polygon>
        <polygon id="path-5" points="0.281066324 0.0868437406 20.1872575 0.0868437406 20.1872575 20 0.281066324 20"></polygon>
    </defs>
    <g id="页面-1" stroke="none" stroke-width="1" fill="none" fill-rule="evenodd">
        <g id="状态栏" transform="translate(-2075.000000, -330.000000)">
            <g id="编组备份-9" transform="translate(2075.000000, 330.000000)">
                <g id="编组" transform="translate(0.000000, 0.308267)">
                    <mask id="mask-2" fill="white">
                        <use xlink:href="#path-1"></use>
                    </mask>
                    <g id="Clip-2"></g>
                    <path d="M1.8352,5.37986667 C2.67586667,4.10186667 3.76053333,3.03253333 5.0592,2.20053333 C5.52453333,1.9032 5.65986667,1.28453333 5.36186667,0.8192 C5.06453333,0.353866667 4.44453333,0.2192 3.9812,0.516533333 C2.44386667,1.5012 1.15986667,2.7672 0.164533333,4.28053333 C-0.1388,4.74186667 -0.0114666667,5.36186667 0.450533333,5.6652 C0.619866667,5.7772 0.810533333,5.82986667 0.9992,5.82986667 C1.32386667,5.82986667 1.6432,5.67186667 1.8352,5.37986667" id="Fill-1" fill-opacity="0.8" fill="#000000" mask="url(#mask-2)"></path>
                </g>
                <g id="编组" transform="translate(16.000000, 0.308267)">
                    <mask id="mask-4" fill="white">
                        <use xlink:href="#path-3"></use>
                    </mask>
                    <g id="Clip-4"></g>
                    <path d="M5.62553333,4.28026667 C4.62953333,2.76626667 3.34553333,1.50026667 1.80886667,0.516266667 C1.34486667,0.218266667 0.7262,0.354266667 0.427533333,0.8196 C0.1302,1.28426667 0.265533333,1.90293333 0.730866667,2.20093333 C2.02886667,3.03226667 3.11353333,4.1016 3.95486667,5.3796 C4.14686667,5.6716 4.4662,5.83026667 4.79086667,5.83026667 C4.97953333,5.83026667 5.1702,5.77693333 5.33953333,5.6656 C5.80153333,5.36226667 5.92886667,4.7416 5.62553333,4.28026667" id="Fill-3" fill-opacity="0.8" fill="#000000" mask="url(#mask-4)"></path>
                </g>
                <g id="编组" transform="translate(0.666667, 1.641600)">
                    <mask id="mask-6" fill="white">
                        <use xlink:href="#path-5"></use>
                    </mask>
                    <g id="Clip-6"></g>
                    <path d="M11.2375333,10.0442667 C11.2375333,10.3089333 11.1322,10.5622667 10.9455333,10.7502667 L7.85553333,13.8462667 C7.6602,14.0422667 7.4042,14.1402667 7.14753333,14.1402667 C6.89153333,14.1402667 6.63686667,14.0422667 6.44153333,13.8476 C6.05086667,13.4576 6.0502,12.8249333 6.4402,12.4336 L9.23753333,9.6296 L9.24086667,5.2836 C9.24153333,4.7316 9.68886667,4.28426667 10.2408667,4.28426667 L10.2415333,4.28426667 C10.7935333,4.28493333 11.2415333,4.73293333 11.2408674,5.28493333 L11.2375333,10.0442667 Z M18.6182,4.67626667 L18.6188667,4.67626667 C17.1855333,2.4376 14.9655333,0.890933333 12.3682,0.3216 C9.77286667,-0.2484 7.10953333,0.2276 4.8702,1.66226667 C2.63153333,3.0956 1.08486667,5.3156 0.515533333,7.91226667 C-0.0538,10.5089333 0.421533333,13.1716 1.8562,15.4109333 C3.28953333,17.6496 5.50886667,19.1969333 8.1062,19.7656 C8.82153333,19.9222667 9.54153333,20.0002667 10.2568667,20.0002667 C12.1382,20.0002667 13.9822,19.4642667 15.6042,18.4249333 C20.2255333,15.4656 21.5788667,9.2976 18.6182,4.67626667 L18.6182,4.67626667 Z" id="Fill-5" fill-opacity="0.8" fill="#000000" mask="url(#mask-6)"></path>
                </g>
            </g>
        </g>
    </g>
</svg>