<?xml version="1.0" encoding="UTF-8"?>
<svg width="14px" height="22px" viewBox="0 0 14 22" version="1.1" xmlns="http://www.w3.org/2000/svg" xmlns:xlink="http://www.w3.org/1999/xlink">
    <title>编组备份 8</title>
    <defs>
        <polygon id="path-1" points="0 0 14 0 14 22 0 22"></polygon>
    </defs>
    <g id="页面-1" stroke="none" stroke-width="1" fill="none" fill-rule="evenodd">
        <g id="状态栏" transform="translate(-511.000000, -330.000000)">
            <g id="编组备份-8" transform="translate(511.000000, 330.000000)">
                <mask id="mask-2" fill="white">
                    <use xlink:href="#path-1"></use>
                </mask>
                <g id="Clip-2"></g>
                <path d="M8.45318944,3.20068547 L8.45318944,9.42893275 L11.6523681,6.2703574 L8.45318944,3.20068547 Z M8.45318944,12.4071969 L8.45318944,18.7099478 L11.6595207,15.4630951 L8.45318944,12.4071969 Z M7.4778301,22 C7.3562353,22 7.23334002,21.9780872 7.11564666,21.9330094 C6.74566035,21.7902631 6.50247075,21.4452928 6.50247075,21.0608795 L6.50247075,14.0443971 L1.67379174,18.8119989 C1.29730304,19.1838906 0.678925211,19.1901514 0.294633628,18.8289031 C-0.091608673,18.4664025 -0.0987613082,17.8722523 0.27707716,17.5009866 L6.50247075,11.3547559 L6.50247075,10.5477383 L0.288781472,4.62564434 C-0.0935593917,4.2606395 -0.0961603499,3.66648925 0.282279076,3.29772792 C0.661368742,2.92834052 1.27779585,2.9258362 1.66208743,3.29084104 L6.50247075,7.90505319 L6.50247075,0.939283263 C6.50247075,0.559252493 6.73980819,0.217412625 7.10394235,0.0715359044 C7.46547554,-0.0730886554 7.8855303,0.0051713878 8.16643379,0.273759856 L13.7129773,5.59544279 C14.0920669,5.95856939 14.0959684,6.547711 13.7227309,6.91647232 L9.66653647,10.9208822 L13.7110266,14.7750328 C14.0881655,15.135029 14.0972689,15.719162 13.731184,16.0898015 L8.1846405,21.7082466 C7.99672127,21.8979489 7.73987664,22 7.4778301,22 L7.4778301,22 Z" id="Fill-1" fill-opacity="0.8" fill="#000000" mask="url(#mask-2)"></path>
            </g>
        </g>
    </g>
</svg>