<?xml version="1.0" encoding="UTF-8"?>
<svg width="44px" height="44px" viewBox="0 0 44 44" version="1.1" xmlns="http://www.w3.org/2000/svg" xmlns:xlink="http://www.w3.org/1999/xlink">
    <title>-mockplus-</title>
    <defs>
        <filter color-interpolation-filters="auto" id="filter-1">
            <feColorMatrix in="SourceGraphic" type="matrix" values="0 0 0 0 0.235294 0 0 0 0 0.235294 0 0 0 0 0.262745 0 0 0 0.600000 0"></feColorMatrix>
        </filter>
    </defs>
    <g id="页面-1" stroke="none" stroke-width="1" fill="none" fill-rule="evenodd">
        <g id="快捷方式切图" transform="translate(-1306.000000, -485.000000)">
            <g id="Computers,-Devices,-Electronics/Calculator" transform="translate(1306.000000, 485.000000)" filter="url(#filter-1)">
                <g transform="translate(-0.000000, -0.000000)" id="Path">
                    <polygon points="0 0 44.0000002 0 44.0000002 44.0000002 0 44.0000002"></polygon>
                    <path d="M31.2876668,38.5000002 L12.7123334,38.5000002 C10.7543334,38.5000002 9.1666667,36.9123335 9.1666667,34.9543335 L9.1666667,9.04750004 C9.1666667,7.08950003 10.7543334,5.50183336 12.7123334,5.50183336 L31.2858335,5.50183336 C33.2456668,5.50183336 34.8333335,7.08950003 34.8333335,9.04750004 L34.8333335,34.9525001 C34.8333335,36.9123335 33.2456668,38.5000002 31.2876668,38.5000002 L31.2876668,38.5000002 Z" stroke="#323232" stroke-width="2.75" stroke-linecap="round" stroke-linejoin="round"></path>
                    <line x1="34.8333335" y1="14.6666667" x2="9.1666667" y2="14.6666667" stroke="#323232" stroke-width="2.75" stroke-linecap="round" stroke-linejoin="round"></line>
                    <path d="M14.6703334,27.4065001 C14.7216667,27.4065001 14.7620001,27.4468334 14.7620001,27.4981668 C14.7620001,27.5495001 14.7216667,27.5898334 14.6703334,27.5898334 C14.6190001,27.5898334 14.5786667,27.5495001 14.5786667,27.4981668 C14.5786667,27.4486668 14.6190001,27.4065001 14.6703334,27.4065001" stroke="#323232" stroke-width="2.75" stroke-linecap="round" stroke-linejoin="round"></path>
                    <path d="M22.0018334,27.4101668 C22.0531668,27.4101668 22.0935001,27.4505001 22.0935001,27.5018334 C22.0935001,27.5531668 22.0531668,27.5935001 22.0018334,27.5935001 C21.9505001,27.5935001 21.9101668,27.5531668 21.9101668,27.5018334 C21.9083334,27.4505001 21.9505001,27.4101668 22.0018334,27.4101668" stroke="#323232" stroke-width="2.75" stroke-linecap="round" stroke-linejoin="round"></path>
                    <path d="M29.3370001,27.4065001 C29.3883335,27.4065001 29.4286668,27.4468334 29.4286668,27.4981668 C29.4286668,27.5495001 29.3883335,27.5898334 29.3370001,27.5898334 C29.2856668,27.5898334 29.2453335,27.5495001 29.2453335,27.4981668 C29.2453335,27.4486668 29.2856668,27.4065001 29.3370001,27.4065001" stroke="#323232" stroke-width="2.75" stroke-linecap="round" stroke-linejoin="round"></path>
                    <path d="M14.6703334,21.9065001 C14.7216667,21.9065001 14.7620001,21.9468334 14.7620001,21.9981668 C14.7620001,22.0495001 14.7216667,22.0898334 14.6703334,22.0898334 C14.6190001,22.0898334 14.5786667,22.0495001 14.5786667,21.9981668 C14.5786667,21.9486668 14.6190001,21.9065001 14.6703334,21.9065001" stroke="#323232" stroke-width="2.75" stroke-linecap="round" stroke-linejoin="round"></path>
                    <path d="M22.0018334,21.9101668 C22.0531668,21.9101668 22.0935001,21.9505001 22.0935001,22.0018334 C22.0935001,22.0531668 22.0531668,22.0935001 22.0018334,22.0935001 C21.9505001,22.0935001 21.9101668,22.0531668 21.9101668,22.0018334 C21.9083334,21.9505001 21.9505001,21.9101668 22.0018334,21.9101668" stroke="#323232" stroke-width="2.75" stroke-linecap="round" stroke-linejoin="round"></path>
                    <path d="M29.3370001,21.9065001 C29.3883335,21.9065001 29.4286668,21.9468334 29.4286668,21.9981668 C29.4286668,22.0495001 29.3883335,22.0898334 29.3370001,22.0898334 C29.2856668,22.0898334 29.2453335,22.0495001 29.2453335,21.9981668 C29.2453335,21.9486668 29.2856668,21.9065001 29.3370001,21.9065001" stroke="#323232" stroke-width="2.75" stroke-linecap="round" stroke-linejoin="round"></path>
                    <path d="M14.6703334,32.9065001 C14.7216667,32.9065001 14.7620001,32.9468335 14.7620001,32.9981668 C14.7620001,33.0495001 14.7216667,33.0898335 14.6703334,33.0898335 C14.6190001,33.0898335 14.5786667,33.0495001 14.5786667,32.9981668 C14.5786667,32.9486668 14.6190001,32.9065001 14.6703334,32.9065001" stroke="#323232" stroke-width="2.75" stroke-linecap="round" stroke-linejoin="round"></path>
                    <path d="M22.0018334,32.9101668 C22.0531668,32.9101668 22.0935001,32.9505001 22.0935001,33.0018335 C22.0935001,33.0531668 22.0531668,33.0935001 22.0018334,33.0935001 C21.9505001,33.0935001 21.9101668,33.0531668 21.9101668,33.0018335 C21.9083334,32.9505001 21.9505001,32.9101668 22.0018334,32.9101668" stroke="#323232" stroke-width="2.75" stroke-linecap="round" stroke-linejoin="round"></path>
                    <path d="M29.3370001,32.9065001 C29.3883335,32.9065001 29.4286668,32.9468335 29.4286668,32.9981668 C29.4286668,33.0495001 29.3883335,33.0898335 29.3370001,33.0898335 C29.2856668,33.0898335 29.2453335,33.0495001 29.2453335,32.9981668 C29.2453335,32.9486668 29.2856668,32.9065001 29.3370001,32.9065001" stroke="#323232" stroke-width="2.75" stroke-linecap="round" stroke-linejoin="round"></path>
                </g>
            </g>
        </g>
    </g>
</svg>