<?xml version="1.0" encoding="UTF-8"?>
<svg width="44px" height="44px" viewBox="0 0 44 44" version="1.1" xmlns="http://www.w3.org/2000/svg" xmlns:xlink="http://www.w3.org/1999/xlink">
    <title>编组 9</title>
    <defs>
        <filter color-interpolation-filters="auto" id="filter-1">
            <feColorMatrix in="SourceGraphic" type="matrix" values="0 0 0 0 0.235294 0 0 0 0 0.235294 0 0 0 0 0.262745 0 0 0 0.600000 0"></feColorMatrix>
        </filter>
    </defs>
    <g id="页面-1" stroke="none" stroke-width="1" fill="none" fill-rule="evenodd">
        <g id="快捷方式切图" transform="translate(-419.000000, -250.000000)">
            <g id="编组-9" transform="translate(419.000000, 250.000000)" filter="url(#filter-1)">
                <g>
                    <path d="M29.76,18.5988701 L32.64,32.6779661 C32.8,33.1525424 32.64,33.7853107 32.16,34.1016949 L31.04,35.2090395 C30.24,36 28.8,35.6836158 28.48,34.7344633 L24.32,24.1355932 L18.88,29.5141243 L19.2,32.9943503 C19.2,33.4689266 19.04,33.9435028 18.72,34.259887 L16.96,36 L13.6,30.4632768 L8,27.1412429 L9.6,25.0847458 C9.92,24.7683616 10.4,24.6101695 10.88,24.6101695 L14.4,24.9265537 L19.84,19.5480226 L8.96,15.4350282 C8,14.960452 7.68,13.6949153 8.48,12.9039548 L9.6,11.7966102 C9.92,11.480226 10.56,11.3220339 11.04,11.3220339 C11.04,11.3220339 25.28,14.1694915 25.28,14.1694915 L30.56,8.94915254 C31.84,7.68361582 33.76,7.68361582 35.04,8.94915254 C36.32,10.2146893 36.32,12.1129944 35.04,13.3785311 L29.76,18.5988701 Z" id="Path" fill="#000000" transform="translate(22.000000, 22.000000) rotate(-315.000000) translate(-22.000000, -22.000000) "></path>
                    <rect id="矩形" x="0" y="0" width="44" height="44"></rect>
                </g>
            </g>
        </g>
    </g>
</svg>