<?xml version="1.0" encoding="UTF-8"?>
<svg width="23px" height="22px" viewBox="0 0 23 22" version="1.1" xmlns="http://www.w3.org/2000/svg" xmlns:xlink="http://www.w3.org/1999/xlink">
    <title>编组</title>
    <defs>
        <polygon id="path-1" points="3.02323906e-05 0.000251428571 22.5858286 0.000251428571 22.5858286 21.5449771 3.02323906e-05 21.5449771"></polygon>
    </defs>
    <g id="页面-1" stroke="none" stroke-width="1" fill="none" fill-rule="evenodd">
        <g id="状态栏" transform="translate(-414.000000, -564.000000)">
            <g id="编组" transform="translate(414.000000, 564.000000)">
                <mask id="mask-2" fill="white">
                    <use xlink:href="#path-1"></use>
                </mask>
                <g id="Clip-2"></g>
                <path d="M14.5083714,12.7904229 L9.17871429,21.2283657 C9.05425714,21.4251086 8.8374,21.5451657 8.60357143,21.5451657 L7.63871429,21.5451657 C7.17922857,21.5451657 6.85174286,21.0982514 6.99002857,20.6601371 L9.46345714,12.8275086 C9.51877143,12.6521371 9.38802857,12.4736229 9.20385714,12.4736229 L3.89745714,12.4736229 C3.65042857,12.4736229 3.42288571,12.6075086 3.30282857,12.8237371 L1.80242857,15.5253371 C1.68237143,15.7409371 1.4542,15.8748229 1.2078,15.8748229 L0.377457143,15.8748229 C0.136085714,15.8748229 -0.0430571429,15.6523086 0.00911428571,15.4165943 L0.919914286,11.31768 C0.999742857,10.9587657 0.999742857,10.5866514 0.919914286,10.2271086 L0.00911428571,6.12882286 C-0.0430571429,5.89310857 0.136085714,5.66996571 0.377457143,5.66996571 L1.2078,5.66996571 C1.45482857,5.66996571 1.68237143,5.80385143 1.80242857,6.02008 L3.30408571,8.72168 C3.42351429,8.93790857 3.65168571,9.07116571 3.89871429,9.07116571 L9.20448571,9.07116571 C9.38865714,9.07116571 9.5194,8.89265143 9.46471429,8.71790857 L6.99065714,0.88528 C6.85174286,0.446537143 7.17922857,0.000251428571 7.63934286,0.000251428571 L8.60357143,0.000251428571 C8.8374,0.000251428571 9.05425714,0.11968 9.17871429,0.317051429 L14.5083714,8.75436571 C14.6328286,8.95173714 14.8503143,9.07116571 15.0835143,9.07116571 L20.7884286,9.07116571 C21.6791143,9.07116571 22.5364857,9.79150857 22.5836286,10.6809371 C22.6351714,11.6621371 21.8551143,12.4736229 20.8852286,12.4736229 L15.0835143,12.4736229 C14.8503143,12.4736229 14.6328286,12.59368 14.5083714,12.7904229" id="Fill-1" fill-opacity="0.8" fill="#000000" mask="url(#mask-2)"></path>
            </g>
        </g>
    </g>
</svg>