<?xml version="1.0" encoding="UTF-8"?>
<svg width="24px" height="22px" viewBox="0 0 24 22" version="1.1" xmlns="http://www.w3.org/2000/svg" xmlns:xlink="http://www.w3.org/1999/xlink">
    <title>编组 2备份 2</title>
    <defs>
        <polygon id="path-1" points="0 0 24 0 24 22 0 22"></polygon>
    </defs>
    <g id="页面-1" stroke="none" stroke-width="1" fill="none" fill-rule="evenodd">
        <g id="状态栏" transform="translate(-1819.000000, -613.000000)">
            <g id="编组-14" transform="translate(332.000000, 612.000000)">
                <g id="编组-2备份-2" transform="translate(1487.000000, 1.000000)">
                    <g id="编组">
                        <mask id="mask-2" fill="white">
                            <use xlink:href="#path-1"></use>
                        </mask>
                        <g id="Clip-2"></g>
                    </g>
                    <path d="M11.8032787,1 C5.29508197,1 0,6.29508197 0,12.8032787 L0,13.1311475 L0,17.4190164 L0,17.9967213 C0,19.6485246 1.35147541,21 3.00327869,21 L4.70032787,21 C6.44262295,21 7.86885246,19.5737705 7.86885246,17.8314754 L7.86885246,14.9881967 C7.86885246,13.2459016 6.44262295,11.8196721 4.70032787,11.8196721 L2.01704918,11.8196721 C2.51213115,6.85639344 6.71081967,2.96721311 11.8032787,2.96721311 C16.8957377,2.96721311 21.0944262,6.85639344 21.5895082,11.8196721 L18.9062295,11.8196721 C17.1639344,11.8196721 15.7377049,13.2459016 15.7377049,14.9881967 L15.7377049,17.8314754 C15.7377049,19.5737705 17.1639344,21 18.9062295,21 L20.6032787,21 C22.255082,21 23.6065574,19.6485246 23.6065574,17.9967213 L23.6065574,17.4190164 L23.6065574,13.1311475 L23.6065574,12.8032787 C23.6065574,6.29508197 18.3114754,1 11.8032787,1" id="Fill-1" fill="#FFFFFF"></path>
                </g>
            </g>
        </g>
    </g>
</svg>