<?xml version="1.0" encoding="UTF-8"?>
<svg width="44px" height="44px" viewBox="0 0 44 44" version="1.1" xmlns="http://www.w3.org/2000/svg" xmlns:xlink="http://www.w3.org/1999/xlink">
    <title>-mockplus-</title>
    <defs>
        <filter color-interpolation-filters="auto" id="filter-1">
            <feColorMatrix in="SourceGraphic" type="matrix" values="0 0 0 0 0.235294 0 0 0 0 0.235294 0 0 0 0 0.262745 0 0 0 0.600000 0"></feColorMatrix>
        </filter>
    </defs>
    <g id="页面-1" stroke="none" stroke-width="1" fill="none" fill-rule="evenodd">
        <g id="快捷方式切图" transform="translate(-1841.000000, -485.000000)">
            <g id="Interface,-Essential/Keyboard,-Hide" transform="translate(1841.000000, 485.000000)" filter="url(#filter-1)">
                <g transform="translate(-0.000000, -0.000000)">
                    <g id="Group" transform="translate(-0.000000, 0.000000)">
                        <g stroke-linecap="round" stroke-linejoin="round" transform="translate(5.494500, 7.333333)" id="Path" stroke="#323232" stroke-width="2.75">
                            <polyline points="23.8388334 27.5000001 16.5238334 31.1666668 16.5055001 31.1666668 9.1721667 27.5000001"></polyline>
                            <path d="M11.0036667,7.0271667 C10.835,7.0271667 10.6993334,7.1646667 10.6993334,7.33333336 C10.6993334,7.50200003 10.8368334,7.63950003 11.0055,7.63950003 C11.1741667,7.63950003 11.3116667,7.50200003 11.3116667,7.33333336 C11.3116667,7.1646667 11.1741667,7.0271667 11.0036667,7.0271667"></path>
                            <path d="M5.53666669,6.91533336 C5.36800002,6.91533336 5.23050002,7.05283336 5.23233336,7.22150003 C5.23233336,7.3901667 5.36983336,7.5276667 5.53850002,7.5276667 C5.70716669,7.5276667 5.84466669,7.3901667 5.84466669,7.22150003 C5.84466669,7.05283336 5.70533336,6.91533336 5.53666669,6.91533336"></path>
                            <line x1="22.0055001" y1="12.8333334" x2="11.0055" y2="12.9250001"></line>
                            <path d="M28.7283335,20.1666668 L4.27350002,20.1666668 C1.91400001,20.1666668 0,18.2545001 0,15.8931667 L0,4.27166668 C0,1.91216667 1.91400001,0 4.27350002,0 L28.7283335,0 C31.0878335,0 33.0018335,1.91216667 33.0018335,4.27350002 L33.0018335,15.8950001 C33,18.2545001 31.0878335,20.1666668 28.7283335,20.1666668 Z"></path>
                            <path d="M5.53666669,12.5271667 C5.36800002,12.5271667 5.23050002,12.6646667 5.23233336,12.8333334 C5.23233336,13.0020001 5.36983336,13.1395001 5.53850002,13.1395001 C5.70716669,13.1395001 5.84283336,13.0020001 5.84283336,12.8333334 C5.84283336,12.6646667 5.70533336,12.5271667 5.53666669,12.5271667"></path>
                            <path d="M16.4725001,7.13900003 C16.3038334,7.13900003 16.1663334,7.27650003 16.1681667,7.4451667 C16.1681667,7.61383337 16.3056667,7.75133337 16.4743334,7.75133337 C16.6430001,7.75133337 16.7805001,7.61383337 16.7805001,7.4451667 C16.7786667,7.27650003 16.6430001,7.13900003 16.4725001,7.13900003"></path>
                            <path d="M21.9413334,7.25083336 C21.7726668,7.25083336 21.6351668,7.38833336 21.6370001,7.55700003 C21.6370001,7.7256667 21.7745001,7.8631667 21.9431668,7.8631667 C22.1118334,7.8631667 22.2493334,7.7256667 22.2493334,7.55700003 C22.2475001,7.38833336 22.1100001,7.25083336 21.9413334,7.25083336"></path>
                            <path d="M27.4743334,13.3100001 C27.6430001,13.3100001 27.7805001,13.1725001 27.7786668,13.0038334 C27.7786668,12.8351667 27.6411668,12.6976667 27.4725001,12.6976667 C27.3038334,12.6976667 27.1663334,12.8351667 27.1663334,13.0038334 C27.1663334,13.1725001 27.3056668,13.3100001 27.4743334,13.3100001"></path>
                            <path d="M27.4083334,7.3626667 C27.2396668,7.3626667 27.1021668,7.5001667 27.1040001,7.66883337 C27.1040001,7.83750003 27.2415001,7.97500003 27.4101668,7.97500003 C27.5788334,7.97500003 27.7163334,7.83750003 27.7163334,7.66883337 C27.7163334,7.5001667 27.5788334,7.3626667 27.4083334,7.3626667"></path>
                        </g>
                        <polygon id="Path" points="0 0 44.0000002 0 44.0000002 44.0000002 0 44.0000002"></polygon>
                    </g>
                </g>
            </g>
        </g>
    </g>
</svg>