<?xml version="1.0" encoding="UTF-8"?>
<svg width="21px" height="22px" viewBox="0 0 21 22" version="1.1" xmlns="http://www.w3.org/2000/svg" xmlns:xlink="http://www.w3.org/1999/xlink">
    <title>编组备份 6</title>
    <g id="页面-1" stroke="none" stroke-width="1" fill="none" fill-rule="evenodd" fill-opacity="0.8">
        <g id="状态栏" transform="translate(-2003.000000, -330.000000)" fill="#000000">
            <g id="编组备份-6" transform="translate(2003.000000, 330.000000)">
                <g id="编组" transform="translate(0.000000, 0.258411)">
                    <path d="M19.7021379,18.6648063 L1.78092529,0.742898276 C1.37341954,0.335392529 0.712787356,0.335392529 0.305281609,0.742898276 C-0.102224138,1.14970862 -0.102224138,1.8103408 0.305281609,2.21784655 L3.08271839,4.99389253 C2.54864943,6.0446454 2.24475862,7.23030632 2.24475862,8.48898448 L2.24475862,16.8790132 L1.85811494,17.3950017 C1.79483333,17.47845 1.76075862,17.5806741 1.76075862,17.6856799 C1.76075862,17.9527144 1.97772414,18.1689845 2.24475862,18.1689845 L16.2571149,18.1689845 L18.2271897,20.1397546 C18.4309425,20.3435075 18.697977,20.4457316 18.9643161,20.4457316 C19.2313506,20.4457316 19.4983851,20.3435075 19.7021379,20.1397546 C20.1096437,19.7322489 20.1096437,19.0723121 19.7021379,18.6648063" id="Fill-1"></path>
                </g>
                <path d="M17.5134287,14.1280713 C17.5947908,14.2094333 17.7331759,14.1517149 17.7331759,14.0369736 L17.7331759,8.91742184 C17.7331759,7.64274943 17.4765724,6.36946782 16.8938253,5.23526667 C14.7645034,1.09136437 9.62269885,-0.204865517 5.82788851,2.21582989 C5.75765287,2.26033563 5.74722184,2.36186437 5.80563563,2.42097356 L17.5134287,14.1280713 Z" id="Fill-3"></path>
                <path d="M12.1362305,19.3958828 L7.84281667,19.3958828 C7.69400057,19.3958828 7.56813276,19.5217506 7.58482241,19.6691759 C7.71973046,20.8770897 8.74544885,21.8158828 9.98952356,21.8158828 C11.2335983,21.8158828 12.2586213,20.8770897 12.3942247,19.6691759 C12.4109144,19.5217506 12.2843511,19.3958828 12.1362305,19.3958828" id="Fill-5"></path>
            </g>
        </g>
    </g>
</svg>