<?xml version="1.0" encoding="UTF-8"?>
<svg width="44px" height="44px" viewBox="0 0 44 44" version="1.1" xmlns="http://www.w3.org/2000/svg" xmlns:xlink="http://www.w3.org/1999/xlink">
    <title>Music, Audio/Volume Half 3</title>
    <defs>
        <filter color-interpolation-filters="auto" id="filter-1">
            <feColorMatrix in="SourceGraphic" type="matrix" values="0 0 0 0 0.235294 0 0 0 0 0.235294 0 0 0 0 0.262745 0 0 0 0.600000 0"></feColorMatrix>
        </filter>
    </defs>
    <g id="页面-1" stroke="none" stroke-width="1" fill="none" fill-rule="evenodd">
        <g id="Music,-Audio/Volume-Half-3" transform="translate(-83.000000, -375.000000)" filter="url(#filter-1)">
            <g transform="translate(83.000000, 375.000000)">
                <g id="Path" transform="translate(-0.000000, -0.000000)">
                    <polygon points="0 0 44.0000002 0 44.0000002 44.0000002 0 44.0000002"></polygon>
                    <path d="M10.7708334,15.8125001 L6.41666669,15.8125001 C5.40466669,15.8125001 4.58333335,16.6338334 4.58333335,17.6458334 L4.58333335,26.3541668 C4.58333335,27.3661668 5.40466669,28.1875001 6.41666669,28.1875001 L10.7708334,28.1875001 L18.0656667,34.3676668 C19.2573334,35.3778335 21.0833334,34.5308335 21.0833334,32.9688335 L21.0833334,11.0311667 C21.0833334,9.46916671 19.2555001,8.6221667 18.0656667,9.63233337 L10.7708334,15.8125001 Z" stroke="#323232" stroke-width="2.98913043" stroke-linecap="round" stroke-linejoin="round"></path>
                    <path d="M28.4845001,29.2930001 C30.6148335,27.9693334 32.0833335,25.2156668 32.0833335,22.0091668 C32.0833335,18.8026667 30.6148335,16.0471667 28.4845001,14.7070001" stroke="#323232" stroke-width="2.98913043" stroke-linecap="round" stroke-linejoin="round"></path>
                    <path d="M33.9258335,34.9525001 C37.2405002,32.1016668 39.4166668,27.3716668 39.4166668,22.0055001 C39.4166668,16.6320001 37.2368335,11.8983334 33.9166668,9.04933337" stroke="#323232" stroke-width="2.98913043" stroke-linecap="round" stroke-linejoin="round"></path>
                </g>
            </g>
        </g>
    </g>
</svg>