<?xml version="1.0" encoding="UTF-8"?>
<svg width="25px" height="22px" viewBox="0 0 25 22" version="1.1" xmlns="http://www.w3.org/2000/svg" xmlns:xlink="http://www.w3.org/1999/xlink">
    <title>形状结合</title>
    <g id="页面-1" stroke="none" stroke-width="1" fill="none" fill-rule="evenodd" fill-opacity="0.8">
        <g id="状态栏" transform="translate(-1343.000000, -1010.000000)" fill="#000000" fill-rule="nonzero">
            <path d="M1360.42993,1010.19518 L1360.52877,1010.27722 L1363.496,1013.069 L1365.95745,1013.06977 C1367.08552,1013.06977 1368,1013.98602 1368,1015.11628 L1368,1020.23256 C1368,1021.36282 1367.08552,1022.27907 1365.95745,1022.27907 L1357.78723,1022.27907 C1356.65916,1022.27907 1355.74468,1021.36282 1355.74468,1020.23256 L1355.744,1018.708 L1349.31721,1018.70856 C1347.50872,1018.70856 1346.03068,1020.2263 1346.03068,1022.11282 C1346.03068,1023.93428 1347.40855,1025.41196 1349.13135,1025.5117 L1349.31721,1025.51707 L1355.02322,1025.51707 C1357.97519,1025.51707 1360.35626,1027.96209 1360.35626,1030.96388 C1360.35626,1031.52792 1359.89813,1031.98516 1359.333,1031.98516 C1358.80824,1031.98516 1358.37574,1031.5909 1358.31663,1031.08298 L1358.30975,1030.96388 C1358.30975,1029.14242 1356.93188,1027.66474 1355.20907,1027.56499 L1355.02322,1027.55963 L1349.31721,1027.55963 C1346.36524,1027.55963 1343.98417,1025.11461 1343.98417,1022.11282 C1343.98417,1019.18607 1346.24767,1016.78861 1349.09691,1016.67056 L1349.31721,1016.66601 L1355.744,1016.666 L1355.74468,1015.11628 C1355.74468,1013.98602 1356.65916,1013.06977 1357.78723,1013.06977 L1360.512,1013.069 L1359.1308,1011.7693 C1358.71957,1011.38251 1358.69915,1010.73494 1359.08519,1010.32292 C1359.44153,1009.94259 1360.01965,1009.8959 1360.42993,1010.19518 Z M1365.95745,1015.11628 L1357.78723,1015.11628 L1357.78723,1020.23256 L1365.95745,1020.23256 L1365.95745,1015.11628 Z" id="形状结合"></path>
        </g>
    </g>
</svg>