<?xml version="1.0" encoding="UTF-8"?>
<svg width="22px" height="22px" viewBox="0 0 22 22" version="1.1" xmlns="http://www.w3.org/2000/svg" xmlns:xlink="http://www.w3.org/1999/xlink">
    <title>编组备份 5</title>
    <defs>
        <polygon id="path-1" points="0 0 22 0 22 22 0 22"></polygon>
    </defs>
    <g id="页面-1" stroke="none" stroke-width="1" fill="none" fill-rule="evenodd">
        <g id="状态栏" transform="translate(-1967.000000, -330.000000)">
            <g id="编组备份-5" transform="translate(1967.000000, 330.000000)">
                <path d="M0.0649224201,12.308674 C-0.722280255,4.74016912 5.77504268,-0.96811901 12.7267324,0.137262558 C15.6282063,0.598347135 18.176691,2.16114903 19.9019413,4.53863547 C21.0677829,6.14418693 21.7468903,7.9934109 21.9313241,9.91775196 L21.9313241,9.91775196 L21.9447597,10.0612684 C21.9673559,10.3312013 21.9789593,10.6029664 21.9814022,10.8753422 L21.9814022,10.8753422 L21.9893414,11.049394 C21.9887307,11.1239004 21.9875093,11.1984067 21.9868985,11.2729131 C21.9850664,11.3223805 21.9868985,11.3712371 21.9850664,11.4207045 C21.97957,11.5550602 21.9722415,11.6888053 21.9624702,11.8231611 C21.9392633,12.1230187 21.9117815,12.4234871 21.8641462,12.7239554 C21.7639901,13.3560383 21.6070381,13.9838462 21.3993974,14.5860043 C21.3914582,14.6128754 21.3737477,14.6067684 21.3609228,14.5933328 L21.3609228,14.5933328 L19.9501872,12.9028929 L17.6258324,10.1192856 C17.5592652,10.0392829 17.6166717,9.91775196 17.7204921,9.91775196 L17.7204921,9.91775196 L19.9361409,9.91775196 C20.0167544,9.91775196 20.0808787,9.84568841 20.069886,9.76629636 C19.8707952,8.28471864 19.312608,6.86543313 18.4093708,5.62142084 C16.9735962,3.64333747 14.8519964,2.34191861 12.4372568,1.95900467 C7.45448981,1.16630562 2.75325925,4.5789422 1.96178162,9.564152 C1.17030399,14.5493618 4.58232986,19.2487602 9.56692895,20.0396272 C12.7377251,20.5416292 15.8767645,19.3855588 17.965386,16.9439481 C18.293947,16.5567592 18.8771732,16.5103453 19.2649728,16.8425705 C19.6521617,17.1729636 19.6973541,17.7555791 19.3663503,18.1415465 C17.2447505,20.6222426 14.2193029,22 11.0326283,22 C10.4518449,22 9.86556519,21.9541969 9.27745334,21.8607586 C5.45686378,21.2543255 2.24759299,18.7351548 0.723876405,14.9634219 C0.381879898,14.1157591 0.159582168,13.218629 0.0649224201,12.308674 Z M11.0553466,4.91202237 C12.9070134,4.91202237 14.4142409,6.41863912 14.4142409,8.27091664 L14.4142409,8.27091664 L14.4142409,9.07827268 L14.8875396,9.07827268 C15.2228183,9.07827268 15.4982477,9.3530913 15.4982477,9.68898073 L15.4982477,9.68898073 L15.4982477,14.8476316 C15.4982477,15.1829103 15.2228183,15.4583397 14.8875396,15.4583397 L14.8875396,15.4583397 L7.09490491,15.4583397 C6.75901549,15.4583397 6.48419686,15.1829103 6.48419686,14.8476316 L6.48419686,14.8476316 L6.48419686,9.68898073 C6.48419686,9.3530913 6.75901549,9.07827268 7.09490491,9.07827268 L7.09490491,9.07827268 L7.57492144,9.07827268 L7.57492144,8.27091664 C7.57492144,6.41863912 9.0821489,4.91202237 10.9338157,4.91202237 L10.9338157,4.91202237 Z M11.0553466,6.74414651 L10.9338157,6.74414651 C10.0916493,6.74414651 9.40704559,7.42936095 9.40704559,8.27091664 L9.40704559,8.27091664 L9.40704559,9.07827268 L12.5821167,9.07827268 L12.5821167,8.27091664 C12.5821167,7.42936095 11.897513,6.74414651 11.0553466,6.74414651 L11.0553466,6.74414651 Z" id="形状结合" fill-opacity="0.8" fill="#000000"></path>
                <g id="编组">
                    <mask id="mask-2" fill="white">
                        <use xlink:href="#path-1"></use>
                    </mask>
                    <g id="Clip-4"></g>
                </g>
            </g>
        </g>
    </g>
</svg>