<?xml version="1.0" encoding="UTF-8"?>
<svg width="21px" height="22px" viewBox="0 0 21 22" version="1.1" xmlns="http://www.w3.org/2000/svg" xmlns:xlink="http://www.w3.org/1999/xlink">
    <title>编组 17</title>
    <g id="页面-1" stroke="none" stroke-width="1" fill="none" fill-rule="evenodd">
        <g id="状态栏" transform="translate(-1428.000000, -871.000000)" fill="#000000">
            <g id="编组-17" transform="translate(1428.000000, 871.000000)">
                <g id="编组-10备份-8" fill-opacity="0.2">
                    <rect id="矩形" x="0" y="14" width="3" height="8" rx="1"></rect>
                    <rect id="矩形备份-32" x="6" y="10" width="3" height="12" rx="1"></rect>
                    <rect id="矩形备份-34" x="12" y="5" width="3" height="6" rx="1"></rect>
                    <rect id="矩形备份-35" x="18" y="0" width="3" height="11" rx="1"></rect>
                </g>
                <path d="M13.2017538,12.2979104 L13.3117071,12.3966262 L16,15.085 L18.6882929,12.3966262 C19.2171279,11.8677913 20.0745388,11.8677913 20.6033738,12.3966262 C21.0969531,12.8902055 21.1298584,13.670011 20.7020896,14.2017538 L20.6033738,14.3117071 L17.915,17 L20.6033738,19.6882929 C21.1322087,20.2171279 21.1322087,21.0745388 20.6033738,21.6033738 C20.1097945,22.0969531 19.329989,22.1298584 18.7982462,21.7020896 L18.6882929,21.6033738 L16,18.915 L13.3117071,21.6033738 C12.7828721,22.1322087 11.9254612,22.1322087 11.3966262,21.6033738 C10.9030469,21.1097945 10.8701416,20.329989 11.2979104,19.7982462 L11.3966262,19.6882929 L14.085,17 L11.3966262,14.3117071 C10.8677913,13.7828721 10.8677913,12.9254612 11.3966262,12.3966262 C11.8902055,11.9030469 12.670011,11.8701416 13.2017538,12.2979104 Z" id="形状结合" fill-opacity="0.8" fill-rule="nonzero"></path>
            </g>
        </g>
    </g>
</svg>