<?xml version="1.0" encoding="UTF-8"?>
<svg width="18px" height="22px" viewBox="0 0 18 22" version="1.1" xmlns="http://www.w3.org/2000/svg" xmlns:xlink="http://www.w3.org/1999/xlink">
    <title>编组备份 2</title>
    <defs>
        <polygon id="path-1" points="0 22 18 22 18 0 0 0"></polygon>
    </defs>
    <g id="页面-1" stroke="none" stroke-width="1" fill="none" fill-rule="evenodd">
        <g id="状态栏" transform="translate(-1857.000000, -330.000000)">
            <g id="编组备份-2" transform="translate(1857.000000, 330.000000)">
                <path d="M15.1714286,0 C15.2932041,0 15.3951429,0.082967467 15.421783,0.194473624 L15.4285714,0.252352941 L15.4285714,8.20147059 L17.7428571,8.20147059 C17.8646327,8.20147059 17.9665714,8.28443806 17.9932116,8.39594421 L18,8.45382353 L18,18.9258397 C18,20.2664647 16.9355056,21.3626928 15.5906116,21.4450349 L15.4279286,21.45 L2.57207143,21.45 C1.206,21.45 0.0889643914,20.4053344 0.00505939105,19.0854924 L0,18.9258397 L0,8.45382353 C0,8.33431639 0.0845422741,8.23427647 0.198164931,8.20813256 L0.257142857,8.20147059 L2.57142857,8.20147059 L2.57142857,0.252352941 C2.57142857,0.132845798 2.65597085,0.0328058824 2.7695935,0.0066619705 L2.82857143,0 L15.1714286,0 Z M16.0714286,10.0941176 L1.92857143,10.0941176 L1.92857143,18.9258397 C1.92857143,19.2424279 2.16711924,19.505313 2.477101,19.5504938 L2.57207143,19.5573529 L15.4279286,19.5573529 C15.750526,19.5573529 16.0184008,19.3232487 16.0644393,19.0190411 L16.0714286,18.9258397 L16.0714286,10.0941176 Z M13.5,1.89264706 L4.5,1.89264706 L4.5,8.20147059 L13.5,8.20147059 L13.5,1.89264706 Z M7.71428571,3.78529412 L7.71428571,6.30882353 L6.42857143,6.30882353 L6.42857143,3.78529412 L7.71428571,3.78529412 Z M11.5714286,3.78529412 L11.5714286,6.30882353 L10.2857143,6.30882353 L10.2857143,3.78529412 L11.5714286,3.78529412 Z" id="形状" fill-opacity="0.8" fill="#000000"></path>
                <mask id="mask-2" fill="white">
                    <use xlink:href="#path-1"></use>
                </mask>
                <g id="Clip-4"></g>
            </g>
        </g>
    </g>
</svg>