<?xml version="1.0" encoding="UTF-8"?>
<svg width="30px" height="22px" viewBox="0 0 30 22" version="1.1" xmlns="http://www.w3.org/2000/svg" xmlns:xlink="http://www.w3.org/1999/xlink">
    <title>编组备份 4</title>
    <defs>
        <polygon id="path-1" points="0 0 30 0 30 22 0 22"></polygon>
    </defs>
    <g id="页面-1" stroke="none" stroke-width="1" fill="none" fill-rule="evenodd">
        <g id="状态栏" transform="translate(-1923.000000, -330.000000)">
            <g id="编组-3" transform="translate(1923.000000, 330.000000)">
                <path d="M7.4196465,5.84448607 C7.64530579,5.18923834 8.35822201,4.84239165 9.01430551,5.0697225 C9.66788168,5.29621756 10.0147284,6.00996955 9.7882333,6.6643815 L9.7882333,6.6643815 L6.15428291,17.1567029 C5.98044167,17.6590037 5.50739293,17.9983284 4.97416838,18 L4.97416838,18 C4.43927228,18 3.96538776,17.6648542 3.78820343,17.1650606 L3.78820343,17.1650606 L0.0723470669,6.67273925 C-0.159162652,6.01999885 0.183505163,5.30373954 0.835409788,5.07222982 C1.49065751,4.84239165 2.20524528,5.18338792 2.43591922,5.83612832 L2.43591922,5.83612832 L4.95745288,12.9544254 Z M14.739031,5.00068747 C17.1059463,5.00068747 19.0315723,6.87198805 19.0315723,9.17287707 C19.0315723,11.4729303 17.1059463,13.3442309 14.739031,13.3442309 L14.739031,13.3442309 L13.2989904,13.3442309 L13.2989904,16.7458358 C13.2989904,17.4378576 12.7373495,17.9994985 12.0453277,17.9994985 C11.3533059,17.9994985 10.791665,17.4378576 10.791665,16.7458358 L10.791665,16.7458358 L10.791665,6.25435021 C10.791665,5.5614926 11.3533059,5.00068747 12.0453277,5.00068747 C12.0695652,5.00068747 12.0912953,5.00653789 12.114697,5.00737367 L12.114697,5.00737367 L12.114697,5.00068747 Z M28.1652575,5.00077105 C28.8572794,5.00077105 29.4189203,5.56157618 29.4189203,6.25443379 L29.4189203,6.25443379 L29.4189203,16.7459194 C29.4189203,17.3033814 29.0511792,17.7939814 28.5154473,17.9502714 C28.3992746,17.9837024 28.282266,17.9995821 28.1652575,17.9995821 C27.7440268,17.9995821 27.342019,17.7872952 27.1071662,17.4187184 L27.1071662,17.4187184 L22.7485987,10.5628547 L22.7485987,16.7459194 C22.7485987,17.4379412 22.1869578,17.9995821 21.494936,17.9995821 C20.8020784,17.9995821 20.2412732,17.4379412 20.2412732,16.7459194 L20.2412732,16.7459194 L20.2412732,6.25443379 C20.2412732,5.69697175 20.6090143,5.20637173 21.1447462,5.05091756 C21.6796423,4.89713493 22.2538198,5.11109337 22.5521916,5.58163478 L22.5521916,5.58163478 L26.9115948,12.4374984 L26.9115948,6.25443379 C26.9115948,5.56157618 27.4732357,5.00077105 28.1652575,5.00077105 Z M14.739031,7.50801295 L13.2989904,7.50801295 L13.2989904,10.8369054 L14.739031,10.8369054 C15.7235742,10.8369054 16.5242468,10.0905582 16.5242468,9.17287707 C16.5242468,8.25519594 15.7235742,7.50801295 14.739031,7.50801295 L14.739031,7.50801295 Z" id="形状结合" fill-opacity="0.8" fill="#000000"></path>
                <mask id="mask-2" fill="white">
                    <use xlink:href="#path-1"></use>
                </mask>
                <g id="Clip-2"></g>
            </g>
        </g>
    </g>
</svg>