<?xml version="1.0" encoding="UTF-8"?>
<svg width="29px" height="24px" viewBox="0 0 29 24" version="1.1" xmlns="http://www.w3.org/2000/svg" xmlns:xlink="http://www.w3.org/1999/xlink">
    <title>Group备份 10</title>
    <g id="页面-1" stroke="none" stroke-width="1" fill="none" fill-rule="evenodd">
        <g id="状态栏" transform="translate(-1289.000000, -963.000000)">
            <g id="Group备份-10" transform="translate(1290.000000, 964.000000)">
                <g id="Group" transform="translate(1.222222, 1.222222)" stroke="#000000" stroke-linecap="round" stroke-linejoin="round" stroke-opacity="0.8" stroke-width="2.6">
                    <g id="编组-15" transform="translate(0.563648, 0.814815)">
                        <path d="M11.6574538,17.0856482 C11.4255371,17.0856482 11.2373149,17.2738704 11.2395556,17.5057871 C11.2384352,17.7377038 11.4266575,17.925926 11.6585741,17.925926 C11.8904908,17.925926 12.078713,17.7377038 12.078713,17.5057871 C12.078713,17.2738704 11.8904908,17.0856482 11.6574538,17.0856482" id="Path"></path>
                        <path d="M3.35775001,8.962963 C7.94230559,4.75821298 15.3737223,4.75821298 19.9582779,8.962963" id="Path"></path>
                        <path d="M-5.21064673e-14,4.26188891 C6.43876855,-1.42062964 16.8783797,-1.42062964 23.3171482,4.26188891" id="Path"></path>
                        <path d="M6.70541669,13.2438982 C9.44024078,10.5236389 13.8757871,10.5236389 16.6106112,13.2438982" id="Path"></path>
                    </g>
                </g>
                <rect id="矩形" x="0" y="0" width="26.8888889" height="22"></rect>
            </g>
        </g>
    </g>
</svg>