<?xml version="1.0" encoding="UTF-8"?>
<svg width="29px" height="24px" viewBox="0 0 29 24" version="1.1" xmlns="http://www.w3.org/2000/svg" xmlns:xlink="http://www.w3.org/1999/xlink">
    <title>编组 6</title>
    <g id="页面-1" stroke="none" stroke-width="1" fill="none" fill-rule="evenodd">
        <g id="状态栏" transform="translate(-1371.000000, -963.000000)">
            <g id="编组-6" transform="translate(1372.000000, 964.000000)">
                <g id="Group备份-16">
                    <rect id="矩形" x="0" y="0" width="26.8888889" height="22"></rect>
                    <g id="Group" transform="translate(1.222222, 1.222222)" stroke="#000000" stroke-linecap="round" stroke-linejoin="round" stroke-opacity="0.2" stroke-width="2.6">
                        <g id="编组-15" transform="translate(0.563648, 0.814815)">
                            <path d="M11.6574538,17.0856482 C11.4255371,17.0856482 11.2373149,17.2738704 11.2395556,17.5057871 C11.2384352,17.7377038 11.4266575,17.925926 11.6585741,17.925926 C11.8904908,17.925926 12.078713,17.7377038 12.078713,17.5057871 C12.078713,17.2738704 11.8904908,17.0856482 11.6574538,17.0856482" id="Path"></path>
                            <path d="M3.35775001,8.962963 C7.0683537,5.5597627 12.6438805,4.91101207 17.0655032,7.01671109" id="Path"></path>
                            <path d="M-5.21064673e-14,4.26188891 C6.43876855,-1.42062964 16.8783797,-1.42062964 23.3171482,4.26188891" id="Path"></path>
                            <path d="M6.70541669,13.2438982 C8.41074978,11.5476472 10.7773745,10.9091143 12.9805779,11.3282995" id="Path"></path>
                        </g>
                    </g>
                </g>
                <g id="Group" transform="translate(16.000000, 11.000000)" fill="#000000" fill-opacity="0.8" fill-rule="nonzero">
                    <path d="M2.81368365,0.985993956 L2.91923882,1.08076118 L5.5,3.661 L8.08076118,1.08076118 C8.58844276,0.573079605 9.41155724,0.573079605 9.91923882,1.08076118 C10.393075,1.55459733 10.424664,2.30321056 10.014006,2.81368365 L9.91923882,2.91923882 L7.339,5.5 L9.91923882,8.08076118 C10.4269204,8.58844276 10.4269204,9.41155724 9.91923882,9.91923882 C9.44540267,10.393075 8.69678944,10.424664 8.18631635,10.014006 L8.08076118,9.91923882 L5.5,7.339 L2.91923882,9.91923882 C2.41155724,10.4269204 1.58844276,10.4269204 1.08076118,9.91923882 C0.606925044,9.44540267 0.575335968,8.69678944 0.985993956,8.18631635 L1.08076118,8.08076118 L3.661,5.5 L1.08076118,2.91923882 C0.573079605,2.41155724 0.573079605,1.58844276 1.08076118,1.08076118 C1.55459733,0.606925044 2.30321056,0.575335968 2.81368365,0.985993956 Z" id="形状结合"></path>
                </g>
            </g>
        </g>
    </g>
</svg>