<?xml version="1.0" encoding="UTF-8"?>
<svg width="29px" height="24px" viewBox="0 0 29 24" version="1.1" xmlns="http://www.w3.org/2000/svg" xmlns:xlink="http://www.w3.org/1999/xlink">
    <title>编组 4</title>
    <g id="页面-1" stroke="none" stroke-width="1" fill="none" fill-rule="evenodd">
        <g id="状态栏" transform="translate(-1330.000000, -963.000000)">
            <g id="编组-4" transform="translate(1331.000000, 964.000000)">
                <g id="Group备份-15">
                    <rect id="矩形" x="0" y="0" width="26.8888889" height="22"></rect>
                    <g id="Group" transform="translate(1.222222, 1.222222)" stroke="#000000" stroke-linecap="round" stroke-linejoin="round" stroke-opacity="0.2" stroke-width="2.6">
                        <g id="编组-15" transform="translate(0.563648, 0.814815)">
                            <path d="M11.6574538,17.0856482 C11.4255371,17.0856482 11.2373149,17.2738704 11.2395556,17.5057871 C11.2384352,17.7377038 11.4266575,17.925926 11.6585741,17.925926 C11.8904908,17.925926 12.078713,17.7377038 12.078713,17.5057871 C12.078713,17.2738704 11.8904908,17.0856482 11.6574538,17.0856482" id="Path"></path>
                            <path d="M3.35775001,8.962963 C6.88331401,5.72947285 12.0924396,4.98256538 16.3957791,6.72224058" id="Path"></path>
                            <path d="M-5.21064673e-14,4.26188891 C6.43876855,-1.42062964 16.8783797,-1.42062964 23.3171482,4.26188891" id="Path"></path>
                            <path d="M6.70541669,13.2438982 C9.44024078,10.5236389 13.8757871,10.5236389 16.6106112,13.2438982" id="Path"></path>
                        </g>
                    </g>
                </g>
                <path d="M22.999,17.9500001 L23.1400865,17.9563266 C23.9300896,18.0275137 24.55,18.6906787 24.55,19.5000001 C24.55,20.3559734 23.855967,21.0500001 22.9999967,21.0500001 C22.1440267,21.0500001 21.4499926,20.3559671 21.4500342,19.5094201 C21.4441431,18.6964526 22.0652559,18.0281262 22.8575072,17.9563769 L22.999,17.9500001 Z M23,8.20000002 C24.977068,8.20000002 26.5926933,9.75184898 26.6948699,11.7035407 L26.7000001,11.9 C26.7000001,13.2348193 26.0694298,14.0914295 24.9572972,14.8460139 L24.9394299,14.8581001 C24.4920318,15.1595594 24.3320121,15.3450385 24.3044821,15.6088829 L24.3,15.7 L24.3,16.0000001 C24.3,16.7179702 23.7179702,17.3000001 23,17.3000001 C22.326903,17.3000001 21.7732848,16.7884504 21.7067118,16.1329175 L21.7,16.0000001 L21.7,15.7 C21.7,14.3407267 22.3457856,13.4705671 23.4865702,12.7019 L23.496,12.695 L23.61981,12.6091984 C23.9500385,12.3710611 24.0726035,12.2077046 24.0957633,11.9860943 L24.1000001,11.9 C24.1000001,11.2929702 23.6070299,10.8 23,10.8 C22.4334389,10.8 21.9662363,11.2294318 21.9064607,11.7802271 L21.9,11.9 C21.9,12.6179702 21.3179702,13.2 20.6,13.2 C19.8820299,13.2 19.3,12.6179702 19.3,11.9 C19.3,9.85702985 20.9570299,8.20000002 23,8.20000002 Z" id="形状结合" fill-opacity="0.8" fill="#000000" fill-rule="nonzero"></path>
            </g>
        </g>
    </g>
</svg>