<?xml version="1.0" encoding="UTF-8"?>
<svg width="27px" height="20px" viewBox="0 0 27 20" version="1.1" xmlns="http://www.w3.org/2000/svg" xmlns:xlink="http://www.w3.org/1999/xlink">
    <title>形状结合</title>
    <g id="页面-1" stroke="none" stroke-width="1" fill="none" fill-rule="evenodd" fill-opacity="0.8">
        <g id="状态栏" transform="translate(-466.000000, -331.000000)" fill="#000000">
            <path d="M479.142561,344.311259 C480.606264,344.311259 482.069968,344.819407 483.245524,345.835704 C483.437376,346.000889 483.437376,346.30237 483.258857,346.480889 L483.258857,346.480889 L479.457376,350.283111 C479.283301,350.455704 479.00182,350.455704 478.828487,350.283111 L478.828487,350.283111 L475.027005,346.480889 C474.848487,346.30237 474.847746,346.000889 475.039598,345.835704 C476.215894,344.819407 477.679598,344.311259 479.142561,344.311259 Z M479.142783,338.026 C482.217598,338.026 485.292413,339.147481 487.702042,341.389704 C487.885005,341.560074 487.885746,341.854148 487.707968,342.031185 L487.707968,342.031185 L485.716857,344.023037 C485.547227,344.191926 485.278339,344.190444 485.101301,344.029704 C483.466487,342.543778 481.367227,341.729704 479.142783,341.729704 C476.918339,341.729704 474.819079,342.543778 473.185005,344.029704 C473.007227,344.190444 472.738339,344.191926 472.568709,344.023037 L472.568709,344.023037 L470.577598,342.031185 C470.400561,341.854148 470.400561,341.560074 470.583524,341.389704 C472.993153,339.147481 476.067968,338.026 479.142783,338.026 Z M479.142783,331.740593 C483.826487,331.740593 488.510931,333.475407 492.14945,336.944296 C492.33019,337.116889 492.330931,337.409481 492.153153,337.585778 L492.153153,337.585778 L490.162783,339.576889 C489.992413,339.747259 489.721301,339.745778 489.546487,339.580593 C486.722783,336.910222 483.045746,335.444296 479.142783,335.444296 C475.23982,335.444296 471.562783,336.910222 468.739079,339.580593 C468.564264,339.745778 468.293153,339.747259 468.122783,339.576889 L468.122783,339.576889 L466.131672,337.585778 C465.955376,337.409481 465.955376,337.116889 466.136116,336.944296 C469.774635,333.475407 474.458339,331.740593 479.142783,331.740593 Z" id="形状结合"></path>
        </g>
    </g>
</svg>