<?xml version="1.0" encoding="UTF-8"?>
<svg width="140px" height="140px" viewBox="0 0 140 140" version="1.1" xmlns="http://www.w3.org/2000/svg" xmlns:xlink="http://www.w3.org/1999/xlink">
    <title>exl</title>
    <defs>
        <filter id="filter-1">
            <feColorMatrix in="SourceGraphic" type="matrix" values="0 0 0 0 1.000000 0 0 0 0 1.000000 0 0 0 0 1.000000 0 0 0 1.000000 0"></feColorMatrix>
        </filter>
    </defs>
    <g id="页面-1" stroke="none" stroke-width="1" fill="none" fill-rule="evenodd">
        <g id="画板" transform="translate(-752.000000, -587.000000)">
            <g id="exl" transform="translate(752.000000, 587.000000)">
                <rect id="矩形" x="0" y="0" width="139.362319" height="140"></rect>
                <g id="编组" transform="translate(35.111387, 14.000000)">
                    <g id="文件" transform="translate(0.000000, 0.905882)">
                        <g id="底色" transform="translate(0.015000, 1.309393)" fill="#F6F8FC" fill-rule="nonzero">
                            <path d="M0,29.7142857 L0,11.8857143 C0,5.32141554 5.46029864,0 12.1959184,0 L55.9304816,0 C59.1647758,0 62.2663496,1.253356 64.5529959,3.48251429 L81.7980245,20.2889143 C84.0853611,22.5173993 85.3714286,25.5400845 85.3714286,28.6921143 L85.3714286,95.0857143 C85.3714286,101.650013 79.9111299,106.971429 73.1755102,106.971429 L12.1959184,106.971429 C5.46029864,106.971429 0,101.650013 0,95.0857143 L0,89.1428571 L0,29.7142857 Z" id="Path"></path>
                        </g>
                        <g id="三角" transform="translate(0.043571, 0.309393)">
                            <path d="M56.05493,0.485714286 C59.3743325,0.485714286 62.5572807,1.79047428 64.9039562,4.11017193 L64.9039562,4.11017193 L81.878971,20.8849723 C84.2287129,23.2062988 85.5492857,26.3550681 85.5492857,29.6382601 L85.5492857,29.6382601 L85.5492857,95.9072415 C85.5492857,99.3259378 84.1475211,102.42127 81.8803081,104.661742 C79.6153168,106.900018 76.4864008,108.284932 73.03,108.284932 L73.03,108.284932 L13.005,108.284932 C9.54859915,108.284932 6.41968322,106.900018 4.15469185,104.661742 C1.88747892,102.42127 0.485714286,99.3259378 0.485714286,95.9072415 L0.485714286,95.9072415 L0.485714286,12.8634052 C0.485714286,9.44470891 1.88747892,6.34937708 4.15469185,4.10890514 C6.41968322,1.87062855 9.54859915,0.485714286 13.005,0.485714286 L13.005,0.485714286 L56.05493,0.485714286 Z" id="路径" stroke="#D5DAE6" stroke-width="1.5"></path>
                            <g id="Path-Clipped" transform="translate(59.000000, 1.000000)" fill="#D5DAE6" fill-rule="nonzero">
                                <g id="形状结合">
                                    <path d="M5.542465,3.47597772 L22.517535,20.2508327 C24.0147645,21.7299562 25.0761614,23.5596179 25.6192895,25.5446792 L6.1392857,25.5442273 C2.8241968,25.5442273 0.1367857,22.8885136 0.1367857,19.6125247 L0.137182922,0.398021391 C2.16453438,0.930771047 4.03371038,1.98456808 5.542465,3.47597772 Z" id="path-1"></path>
                                </g>
                            </g>
                        </g>
                    </g>
                </g>
                <g id="背景色" transform="translate(21.000000, 48.000000)" fill="#39C17B" fill-rule="nonzero">
                    <g id="编组" transform="translate(0.623188, 0.000000)">
                        <rect id="矩形" x="0" y="0" width="44" height="44" rx="9"></rect>
                    </g>
                </g>
                <g filter="url(#filter-1)" id="文字">
                    <g transform="translate(22.000000, 53.000000)">
                        <polygon id="E" fill="#FFFFFF" fill-rule="nonzero" points="28.344 27 28.344 23.304 20.084 23.304 20.084 18.908 27.504 18.908 27.504 15.268 20.084 15.268 20.084 11.096 28.204 11.096 28.204 7.4 16.22 7.4 16.22 27"></polygon>
                    </g>
                </g>
            </g>
        </g>
    </g>
</svg>