<?xml version="1.0" encoding="UTF-8"?>
<svg width="66px" height="150px" viewBox="0 0 66 150" version="1.1" xmlns="http://www.w3.org/2000/svg" xmlns:xlink="http://www.w3.org/1999/xlink">
    <title>路径 32</title>
    <g id="页面-1" stroke="none" stroke-width="1" fill="none" fill-rule="evenodd">
        <g id="锁屏快充" transform="translate(-855.000000, -510.000000)" fill="#3DED76">
            <path d="M917.699221,512.228856 L898.123954,555.099577 C897.854075,555.690623 898.114433,556.388541 898.70548,556.65842 C898.858867,556.728459 899.025518,556.764706 899.194139,556.764706 L919.444456,556.764706 C920.094202,556.764706 920.620926,557.29143 920.620926,557.941176 C920.620926,558.221729 920.520668,558.493047 920.338236,558.706186 L895.578431,587.633683 C895.155928,588.127304 895.21358,588.86997 895.707201,589.292473 C895.920341,589.474905 896.191658,589.575163 896.472211,589.575163 L918.410522,589.575163 C919.060269,589.575163 919.586993,590.101887 919.586993,590.751634 C919.586993,591.036227 919.483832,591.311172 919.296624,591.525524 L860.667953,658.655205 C860.240546,659.144586 859.497342,659.194825 859.007961,658.767417 C858.628784,658.436258 858.502337,657.900537 858.693417,657.434779 L877.00082,612.81037 C877.247435,612.209245 876.960047,611.522015 876.358921,611.2754 C876.217225,611.217269 876.065542,611.187364 875.912385,611.187364 L856.517437,611.187364 C855.86769,611.187364 855.340966,610.66064 855.340966,610.010893 C855.340966,609.73498 855.437942,609.467844 855.614941,609.256185 L879.23237,581.013993 C879.649184,580.515558 879.583017,579.773603 879.084583,579.356789 C878.877277,579.18343 878.616609,579.086725 878.346397,579.08293 L858.556373,578.804969 C857.90669,578.795844 857.387416,578.261774 857.396541,577.612092 C857.400483,577.331437 857.504636,577.061438 857.690197,576.850844 L915.746337,510.962427 C916.175888,510.474926 916.919305,510.427949 917.406806,510.857499 C917.795798,511.200251 917.914565,511.757241 917.699221,512.228856 Z" id="路径-32"></path>
        </g>
    </g>
</svg>